<svg width="43" height="32" viewBox="0 0 43 32" fill="none" xmlns="http://www.w3.org/2000/svg">
<path fill-rule="evenodd" clip-rule="evenodd" d="M34.5391 16.419L32.6121 7.71322C33.1321 7.6428 33.5908 7.37827 33.9134 6.99519C34.2943 7.23324 34.7435 7.37149 35.2248 7.37149H36.8786C37.3353 7.37149 37.7054 7.00133 37.7054 6.54461V3.23712C37.7054 2.7804 37.3353 2.41024 36.8786 2.41024H35.2248C34.7293 2.41024 34.2674 2.55689 33.8795 2.8085C33.501 2.38053 32.9483 2.10986 32.3333 2.10986H27.4522C26.5753 2.10986 25.8246 2.65992 25.5258 3.43285H23.5659C22.3805 3.43285 21.416 4.39733 21.416 5.58273C21.416 6.76813 22.3805 7.7326 23.5659 7.7326H27.822V9.39894C27.822 9.85566 28.1922 10.2258 28.6489 10.2258C29.1056 10.2258 29.4758 9.85566 29.4758 9.39894V7.7326H30.9228L32.9984 17.1108L29.0701 24.1076C28.6408 24.8692 27.8314 25.3424 26.957 25.3424H17.1505C16.74 21.8996 13.8046 19.221 10.2532 19.221C8.68185 19.221 7.19929 19.7329 5.96576 20.7013L5.96092 20.7051C4.49225 21.8602 3.56912 23.5178 3.35401 25.3424H1.65568C1.76357 19.398 6.63275 14.5956 12.6021 14.5956H18.4677C18.9306 14.5956 19.3075 14.9726 19.3075 15.4358V22.8618C19.3075 23.3185 19.6776 23.6887 20.1344 23.6887H24.5342C26.3291 23.6887 27.9832 22.7126 28.8508 21.1418C29.2523 20.4151 29.4651 19.5921 29.4658 18.7623L29.47 16.0152C29.4706 15.5585 29.1008 15.1877 28.6441 15.1871H28.6431C28.187 15.1871 27.8169 15.5566 27.8162 16.0126L27.812 18.7604C27.8117 19.3121 27.6702 19.8592 27.4034 20.3421C26.8265 21.386 25.7271 22.0346 24.5342 22.0346H20.9612V15.4354C20.9612 15.012 20.8547 14.6128 20.6676 14.263C21.4105 13.8337 21.9118 13.0314 21.9118 12.1137C21.9118 10.7458 20.7988 9.63311 19.4312 9.63311H16.4131C16.1231 9.63311 15.845 9.6835 15.5862 9.77523V2.522C15.5862 1.15411 14.4732 0.0413818 13.1056 0.0413818H7.77132C3.90439 0.0413818 0.688631 2.88053 0.0975453 6.58337C0.0726744 6.66218 0.0591085 6.74584 0.0591085 6.83273C0.0591085 6.83535 0.0592753 6.83789 0.0594393 6.84039C0.0595982 6.84282 0.0597545 6.8452 0.0597545 6.84758C0.0203489 7.16412 0 7.48615 0 7.8127V12.1141C0 13.356 0.917636 14.3876 2.11047 14.5669L3.94154 16.398C1.5155 18.6964 0 21.9464 0 25.5443V26.1693C0 26.626 0.370155 26.9962 0.826873 26.9962H5.47384C5.46318 27.0495 5.45736 27.105 5.45736 27.1615C5.45736 28.3615 5.90149 29.4593 6.63275 30.3011H0.826873C0.370155 30.3011 0 30.6715 0 31.1279C0 31.5847 0.370155 31.9548 0.826873 31.9548H10.1576L10.1852 31.9558C10.2079 31.9566 10.2305 31.9574 10.2532 31.9574C12.8976 31.9574 15.0491 29.8059 15.0491 27.1615C15.0491 27.105 15.0433 27.0495 15.0326 26.9962H26.957C28.259 26.9962 29.4758 26.3721 30.2384 25.3398H31.2855C31.0501 25.9128 30.9251 26.5304 30.9251 27.1615C30.9251 28.3615 31.3692 29.4593 32.1005 30.3011H21.3773C20.9205 30.3011 20.5504 30.6715 20.5504 31.1279C20.5504 31.5847 20.9205 31.9548 21.3773 31.9548H35.6253C35.6573 31.9558 35.689 31.9574 35.7209 31.9574C38.3653 31.9574 40.5168 29.8059 40.5168 27.1615C40.5168 26.5304 40.3918 25.9128 40.1563 25.3398H41.509C41.9658 25.3398 42.3359 24.9697 42.3359 24.513C42.3359 20.1483 38.8653 16.5788 34.5391 16.419ZM16.4131 11.2872H19.4312C19.887 11.2872 20.2581 11.658 20.2581 12.1141C20.2581 12.5698 19.887 12.9409 19.4312 12.9409H16.4131C15.957 12.9409 15.5862 12.5698 15.5862 12.1141C15.5862 11.658 15.957 11.2872 16.4131 11.2872ZM1.65604 7.71101L1.65604 7.71102C1.65489 7.7449 1.65375 7.77873 1.65375 7.8127V12.1141C1.65375 12.5698 2.02455 12.9409 2.4803 12.9409H2.48094H13.1053C13.5614 12.9409 13.9322 12.5698 13.9322 12.1141V2.52233C13.9322 2.06625 13.5614 1.69545 13.1053 1.69545H7.77132C5.02681 1.69545 2.69897 3.51199 1.92636 6.00618H10.7057C11.1625 6.00618 11.5326 6.37633 11.5326 6.83305C11.5326 7.28977 11.1625 7.65992 10.7057 7.65992H1.65762L1.65604 7.71101ZM4.47707 14.5947H6.36919C5.9719 14.8214 5.5885 15.0698 5.21964 15.3372L4.47707 14.5947ZM10.2852 30.3027C12.0029 30.2856 13.3953 28.8834 13.3953 27.1615C13.3953 27.105 13.4012 27.0495 13.4118 26.9962H7.09464C7.1053 27.0495 7.11111 27.105 7.11111 27.1615C7.11111 28.8621 8.46932 30.2504 10.1579 30.3011H10.2532C10.2593 30.3011 10.2654 30.3015 10.2715 30.3019C10.2761 30.3022 10.2806 30.3025 10.2852 30.3027ZM5.02261 25.3424C5.22739 24.0288 5.91731 22.8421 6.98288 22.0052C6.98547 22.0036 6.98773 22.0013 6.99031 21.9997C7.92894 21.2639 9.05717 20.8747 10.2532 20.8747C12.8915 20.8747 15.0849 22.8143 15.4832 25.3424H5.02261ZM36.0517 4.06399H35.2248C34.7687 4.06399 34.3979 4.43512 34.3979 4.89086C34.3979 5.34694 34.7687 5.71774 35.2248 5.71774H36.0517V4.06399ZM23.0698 5.58273C23.0698 5.30915 23.2923 5.0866 23.5659 5.0866H25.3876V5.668C25.3876 5.80882 25.4018 5.9461 25.4286 6.07885H23.5659C23.2923 6.07885 23.0698 5.8563 23.0698 5.58273ZM27.4522 6.07885H28.6489H32.3333C32.5598 6.07885 32.7442 5.89474 32.7442 5.668V4.17446C32.7442 3.94804 32.5598 3.7636 32.3333 3.7636H27.4522C27.2258 3.7636 27.0413 3.94804 27.0413 4.17446V5.668C27.0413 5.89474 27.2258 6.07885 27.4522 6.07885ZM38.863 27.1615C38.863 28.8834 37.4706 30.2856 35.7529 30.3027C35.7507 30.3026 35.7484 30.3025 35.7462 30.3024C35.7438 30.3022 35.7415 30.3021 35.7392 30.3019C35.7331 30.3015 35.727 30.3011 35.7209 30.3011H35.6256C33.937 30.2504 32.5788 28.8621 32.5788 27.1615C32.5788 26.5046 32.7836 25.8695 33.1609 25.3398H38.281C38.6583 25.8695 38.863 26.5046 38.863 27.1615ZM34.3563 18.0701L31.2032 23.6861H40.6292C40.2274 20.5598 37.5762 18.1292 34.3563 18.0701Z" fill="#495567"/>
</svg>
